<?xml version="1.0" encoding="UTF-8"?>
<svg xmlns="http://www.w3.org/2000/svg" xmlns:xlink="http://www.w3.org/1999/xlink" width="362.000mm" height="682.003mm" viewBox="33.125000 -990.001587 362.000000 682.003174">
    <path transform="matrix(1.13125,0,0,-1.06563,214.125,-649)" style="stroke:#000000;stroke-width:0.05mm;fill:none" d="M160.000015,-314.999969C160.000015,-317.761383,157.761444,-319.999969,155.000015,-319.999969L-155,-319.999969C-157.761414,-319.999969,-160,-317.761383,-160,-314.999969L-160,315C-160,317.761414,-157.761414,320,-155,320L155.000015,320C157.761444,320,160.000015,317.761414,160.000015,315L160.000015,-314.999969z"/>
    <circle transform="matrix(1,0,0,-1,173.346008,-756.185059)" style="stroke:#000000;stroke-width:0.05mm;fill:none" r="2" cx="0" cy="0"/>
    <circle transform="matrix(1,0,0,-1,254.655029,-756.390991)" style="stroke:#000000;stroke-width:0.05mm;fill:none" r="2" cx="0" cy="0"/>
    <circle transform="matrix(1,0,0,-1,244.16803,-891.81604)" style="stroke:#000000;stroke-width:0.05mm;fill:none" r="2" cx="0" cy="0"/>
    <circle transform="matrix(1,0,0,-1,183.878021,-891.601013)" style="stroke:#000000;stroke-width:0.05mm;fill:none" r="2" cx="0" cy="0"/>
    <path transform="matrix(1,0,0,-1,214,-824)" style="stroke:#000000;stroke-width:0.05mm;fill:none" d="M51.206146,-66.937805C51.206146,-72.460663,46.728973,-76.937805,41.206146,-76.937805"/>
    <path transform="matrix(0.257318,0,0,-1,183.397003,-824)" style="stroke:#000000;stroke-width:0.05mm;fill:none" d="M41.206146,-76.937805L-41.206146,-76.937805"/>
    <path transform="matrix(1,0,0,-1,214,-824)" style="stroke:#000000;stroke-width:0.05mm;fill:none" d="M-41.206146,-76.937805C-46.729004,-76.937805,-51.206146,-72.460663,-51.206146,-66.937805"/>
    <path transform="matrix(1,0,0,-1,214,-824)" style="stroke:#000000;stroke-width:0.05mm;fill:none" d="M-51.206146,-66.937805L-51.206146,66.937805"/>
    <path transform="matrix(1,0,0,-1,214,-824)" style="stroke:#000000;stroke-width:0.05mm;fill:none" d="M-51.206146,66.937805C-51.206146,72.460663,-46.729004,76.937805,-41.206146,76.937805"/>
    <path transform="matrix(0.257317,0,0,-1,183.397003,-824)" style="stroke:#000000;stroke-width:0.05mm;fill:none" d="M-41.206146,76.937805L41.206146,76.937805"/>
    <path transform="matrix(1,0,0,-1,214,-824)" style="stroke:#000000;stroke-width:0.05mm;fill:none" d="M41.206146,76.937805C46.728973,76.937805,51.206146,72.460663,51.206146,66.937805"/>
    <path transform="matrix(1,0,0,-1,214,-824)" style="stroke:#000000;stroke-width:0.05mm;fill:none" d="M51.206146,66.937805L51.206146,-66.937805"/>
    <path transform="matrix(0.257321,0,0,-1,244.602997,-824)" style="stroke:#000000;stroke-width:0.05mm;fill:none" d="M41.206146,-76.937805L-41.206146,-76.937805"/>
    <path transform="matrix(0.257325,0,0,-1,244.602997,-824)" style="stroke:#000000;stroke-width:0.05mm;fill:none" d="M-41.206146,76.937805L41.206146,76.937805"/>
    <path transform="matrix(1,0,0,-1,65.698997,-559.007996)" style="stroke:#000000;stroke-width:0.05mm;fill:none" d="M4.177155,-4.5C4.177155,-6.15686,2.834015,-7.5,1.177155,-7.5L-1.177155,-7.5C-2.834015,-7.5,-4.177155,-6.15686,-4.177155,-4.5L-4.177155,4.5C-4.177155,6.15686,-2.834015,7.5,-1.177155,7.5L1.177155,7.5C2.834015,7.5,4.177155,6.15686,4.177155,4.5L4.177155,-4.5z"/>
    <path transform="matrix(1,0,0,-1,202.552002,-418.947998)" style="stroke:#000000;stroke-width:0.05mm;fill:none" d="M4.177155,-4.5C4.177155,-6.15686,2.834015,-7.5,1.177155,-7.5L-1.177155,-7.5C-2.834015,-7.5,-4.177155,-6.15686,-4.177155,-4.5L-4.177155,4.5C-4.177155,6.15686,-2.834015,7.5,-1.177155,7.5L1.177155,7.5C2.834015,7.5,4.177155,6.15686,4.177155,4.5L4.177155,-4.5z"/>
    <path transform="matrix(1,0,0,-1,65.698997,-879.01001)" style="stroke:#000000;stroke-width:0.05mm;fill:none" d="M4.177155,-4.5C4.177155,-6.15686,2.834015,-7.5,1.177155,-7.5L-1.177155,-7.5C-2.834015,-7.5,-4.177155,-6.15686,-4.177155,-4.5L-4.177155,4.5C-4.177155,6.15686,-2.834015,7.5,-1.177155,7.5L1.177155,7.5C2.834015,7.5,4.177155,6.15686,4.177155,4.5L4.177155,-4.5z"/>
    <path transform="matrix(1,0,0,-1,202.552002,-738.947998)" style="stroke:#000000;stroke-width:0.05mm;fill:none" d="M4.177155,-4.5C4.177155,-6.15686,2.834015,-7.5,1.177155,-7.5L-1.177155,-7.5C-2.834015,-7.5,-4.177155,-6.15686,-4.177155,-4.5L-4.177155,4.5C-4.177155,6.15686,-2.834015,7.5,-1.177155,7.5L1.177155,7.5C2.834015,7.5,4.177155,6.15686,4.177155,4.5L4.177155,-4.5z"/>
    <path transform="matrix(1,0,0,-1,225.699005,-559.007996)" style="stroke:#000000;stroke-width:0.05mm;fill:none" d="M4.177155,-4.5C4.177155,-6.15686,2.834015,-7.5,1.177155,-7.5L-1.177155,-7.5C-2.834015,-7.5,-4.177155,-6.15686,-4.177155,-4.5L-4.177155,4.5C-4.177155,6.15686,-2.834015,7.5,-1.177155,7.5L1.177155,7.5C2.834015,7.5,4.177155,6.15686,4.177155,4.5L4.177155,-4.5z"/>
    <path transform="matrix(1,0,0,-1,362.552002,-418.947998)" style="stroke:#000000;stroke-width:0.05mm;fill:none" d="M4.177155,-4.5C4.177155,-6.15686,2.834015,-7.5,1.177155,-7.5L-1.177155,-7.5C-2.834015,-7.5,-4.177155,-6.15686,-4.177155,-4.5L-4.177155,4.5C-4.177155,6.15686,-2.834015,7.5,-1.177155,7.5L1.177155,7.5C2.834015,7.5,4.177155,6.15686,4.177155,4.5L4.177155,-4.5z"/>
    <path transform="matrix(1,0,0,-1,225.699005,-879.01001)" style="stroke:#000000;stroke-width:0.05mm;fill:none" d="M4.177155,-4.5C4.177155,-6.15686,2.834015,-7.5,1.177155,-7.5L-1.177155,-7.5C-2.834015,-7.5,-4.177155,-6.15686,-4.177155,-4.5L-4.177155,4.5C-4.177155,6.15686,-2.834015,7.5,-1.177155,7.5L1.177155,7.5C2.834015,7.5,4.177155,6.15686,4.177155,4.5L4.177155,-4.5z"/>
    <path transform="matrix(1,0,0,-1,362.552002,-738.947998)" style="stroke:#000000;stroke-width:0.05mm;fill:none" d="M4.177155,-4.5C4.177155,-6.15686,2.834015,-7.5,1.177155,-7.5L-1.177155,-7.5C-2.834015,-7.5,-4.177155,-6.15686,-4.177155,-4.5L-4.177155,4.5C-4.177155,6.15686,-2.834015,7.5,-1.177155,7.5L1.177155,7.5C2.834015,7.5,4.177155,6.15686,4.177155,4.5L4.177155,-4.5z"/>
    <circle transform="matrix(0.999986,-0.005311,-0.005311,-0.999986,65.503998,-520.69397)" style="stroke:#000000;stroke-width:0.05mm;fill:none" r="3" cx="0" cy="0"/>
    <circle transform="matrix(0.999986,-0.005311,-0.005311,-0.999986,202.496002,-520.69397)" style="stroke:#000000;stroke-width:0.05mm;fill:none" r="3" cx="0" cy="0"/>
    <circle transform="matrix(0.999986,-0.005311,-0.005311,-0.999986,65.503998,-457.683014)" style="stroke:#000000;stroke-width:0.05mm;fill:none" r="3" cx="0" cy="0"/>
    <circle transform="matrix(0.999986,-0.005311,-0.005311,-0.999986,202.496002,-457.683014)" style="stroke:#000000;stroke-width:0.05mm;fill:none" r="3" cx="0" cy="0"/>
    <circle transform="matrix(0.999986,-0.005311,-0.005311,-0.999986,65.503998,-366.605988)" style="stroke:#000000;stroke-width:0.05mm;fill:none" r="3" cx="0" cy="0"/>
    <circle transform="matrix(0.999986,-0.005311,-0.005311,-0.999986,202.496002,-366.605988)" style="stroke:#000000;stroke-width:0.05mm;fill:none" r="3" cx="0" cy="0"/>
    <circle transform="matrix(0.999986,-0.005311,-0.005311,-0.999986,91.318001,-637.528992)" style="stroke:#000000;stroke-width:0.05mm;fill:none" r="3" cx="0" cy="0"/>
    <circle transform="matrix(0.999986,-0.005311,-0.005311,-0.999986,176.201996,-637.528992)" style="stroke:#000000;stroke-width:0.05mm;fill:none" r="3" cx="0" cy="0"/>
    <circle transform="matrix(0.999986,-0.005311,-0.005311,-0.999986,202.496002,-611.437988)" style="stroke:#000000;stroke-width:0.05mm;fill:none" r="3" cx="0" cy="0"/>
    <circle transform="matrix(0.999986,-0.005311,-0.005311,-0.999986,65.503998,-611.437988)" style="stroke:#000000;stroke-width:0.05mm;fill:none" r="3" cx="0" cy="0"/>
    <circle transform="matrix(0.999986,0.005311,-0.005311,0.999986,91.332001,-340.471985)" style="stroke:#000000;stroke-width:0.05mm;fill:none" r="3" cx="0" cy="0"/>
    <circle transform="matrix(0.999986,0.005311,-0.005311,0.999986,176.216003,-340.471985)" style="stroke:#000000;stroke-width:0.05mm;fill:none" r="3" cx="0" cy="0"/>
    <circle transform="matrix(0.999986,-0.005311,-0.005311,-0.999986,65.503998,-840.690002)" style="stroke:#000000;stroke-width:0.05mm;fill:none" r="3" cx="0" cy="0"/>
    <circle transform="matrix(0.999986,-0.005311,-0.005311,-0.999986,202.496002,-840.690002)" style="stroke:#000000;stroke-width:0.05mm;fill:none" r="3" cx="0" cy="0"/>
    <circle transform="matrix(0.999986,-0.005311,-0.005311,-0.999986,65.503998,-777.682983)" style="stroke:#000000;stroke-width:0.05mm;fill:none" r="3" cx="0" cy="0"/>
    <circle transform="matrix(0.999986,-0.005311,-0.005311,-0.999986,202.496002,-777.682983)" style="stroke:#000000;stroke-width:0.05mm;fill:none" r="3" cx="0" cy="0"/>
    <circle transform="matrix(0.999986,-0.005311,-0.005311,-0.999986,65.503998,-686.606018)" style="stroke:#000000;stroke-width:0.05mm;fill:none" r="3" cx="0" cy="0"/>
    <circle transform="matrix(0.999986,-0.005311,-0.005311,-0.999986,202.496002,-686.606018)" style="stroke:#000000;stroke-width:0.05mm;fill:none" r="3" cx="0" cy="0"/>
    <circle transform="matrix(0.999986,-0.005311,-0.005311,-0.999986,91.318001,-957.530029)" style="stroke:#000000;stroke-width:0.05mm;fill:none" r="3" cx="0" cy="0"/>
    <circle transform="matrix(0.999986,-0.005311,-0.005311,-0.999986,176.201996,-957.530029)" style="stroke:#000000;stroke-width:0.05mm;fill:none" r="3" cx="0" cy="0"/>
    <circle transform="matrix(0.999986,-0.005311,-0.005311,-0.999986,202.496002,-931.440002)" style="stroke:#000000;stroke-width:0.05mm;fill:none" r="3" cx="0" cy="0"/>
    <circle transform="matrix(0.999986,-0.005311,-0.005311,-0.999986,65.503998,-931.440002)" style="stroke:#000000;stroke-width:0.05mm;fill:none" r="3" cx="0" cy="0"/>
    <circle transform="matrix(0.999986,0.005311,-0.005311,0.999986,91.332001,-660.471985)" style="stroke:#000000;stroke-width:0.05mm;fill:none" r="3" cx="0" cy="0"/>
    <circle transform="matrix(0.999986,0.005311,-0.005311,0.999986,176.216003,-660.471985)" style="stroke:#000000;stroke-width:0.05mm;fill:none" r="3" cx="0" cy="0"/>
    <circle transform="matrix(0.999986,-0.005311,-0.005311,-0.999986,225.503998,-520.69397)" style="stroke:#000000;stroke-width:0.05mm;fill:none" r="3" cx="0" cy="0"/>
    <circle transform="matrix(0.999986,-0.005311,-0.005311,-0.999986,362.496002,-520.69397)" style="stroke:#000000;stroke-width:0.05mm;fill:none" r="3" cx="0" cy="0"/>
    <circle transform="matrix(0.999986,-0.005311,-0.005311,-0.999986,225.503998,-457.683014)" style="stroke:#000000;stroke-width:0.05mm;fill:none" r="3" cx="0" cy="0"/>
    <circle transform="matrix(0.999986,-0.005311,-0.005311,-0.999986,362.496002,-457.683014)" style="stroke:#000000;stroke-width:0.05mm;fill:none" r="3" cx="0" cy="0"/>
    <circle transform="matrix(0.999986,-0.005311,-0.005311,-0.999986,225.503998,-366.605988)" style="stroke:#000000;stroke-width:0.05mm;fill:none" r="3" cx="0" cy="0"/>
    <circle transform="matrix(0.999986,-0.005311,-0.005311,-0.999986,362.496002,-366.605988)" style="stroke:#000000;stroke-width:0.05mm;fill:none" r="3" cx="0" cy="0"/>
    <circle transform="matrix(0.999986,-0.005311,-0.005311,-0.999986,251.317993,-637.528015)" style="stroke:#000000;stroke-width:0.05mm;fill:none" r="3" cx="0" cy="0"/>
    <circle transform="matrix(0.999986,-0.005311,-0.005311,-0.999986,336.201996,-637.528992)" style="stroke:#000000;stroke-width:0.05mm;fill:none" r="3" cx="0" cy="0"/>
    <circle transform="matrix(0.999986,-0.005311,-0.005311,-0.999986,362.496002,-611.437988)" style="stroke:#000000;stroke-width:0.05mm;fill:none" r="3" cx="0" cy="0"/>
    <circle transform="matrix(0.999986,-0.005311,-0.005311,-0.999986,225.503998,-611.437988)" style="stroke:#000000;stroke-width:0.05mm;fill:none" r="3" cx="0" cy="0"/>
    <circle transform="matrix(0.999986,0.005311,-0.005311,0.999986,251.332001,-340.471008)" style="stroke:#000000;stroke-width:0.05mm;fill:none" r="3" cx="0" cy="0"/>
    <circle transform="matrix(0.999986,0.005311,-0.005311,0.999986,336.216003,-340.471008)" style="stroke:#000000;stroke-width:0.05mm;fill:none" r="3" cx="0" cy="0"/>
    <circle transform="matrix(0.999986,-0.005311,-0.005311,-0.999986,225.503998,-840.690002)" style="stroke:#000000;stroke-width:0.05mm;fill:none" r="3" cx="0" cy="0"/>
    <circle transform="matrix(0.999986,-0.005311,-0.005311,-0.999986,362.496002,-840.690002)" style="stroke:#000000;stroke-width:0.05mm;fill:none" r="3" cx="0" cy="0"/>
    <circle transform="matrix(0.999986,-0.005311,-0.005311,-0.999986,225.503998,-777.682983)" style="stroke:#000000;stroke-width:0.05mm;fill:none" r="3" cx="0" cy="0"/>
    <circle transform="matrix(0.999986,-0.005311,-0.005311,-0.999986,362.496002,-777.682983)" style="stroke:#000000;stroke-width:0.05mm;fill:none" r="3" cx="0" cy="0"/>
    <circle transform="matrix(0.999986,-0.005311,-0.005311,-0.999986,225.503998,-686.606018)" style="stroke:#000000;stroke-width:0.05mm;fill:none" r="3" cx="0" cy="0"/>
    <circle transform="matrix(0.999986,-0.005311,-0.005311,-0.999986,362.496002,-686.606018)" style="stroke:#000000;stroke-width:0.05mm;fill:none" r="3" cx="0" cy="0"/>
    <circle transform="matrix(0.999986,-0.005311,-0.005311,-0.999986,251.317993,-957.530029)" style="stroke:#000000;stroke-width:0.05mm;fill:none" r="3" cx="0" cy="0"/>
    <circle transform="matrix(0.999986,-0.005311,-0.005311,-0.999986,336.201996,-957.530029)" style="stroke:#000000;stroke-width:0.05mm;fill:none" r="3" cx="0" cy="0"/>
    <circle transform="matrix(0.999986,-0.005311,-0.005311,-0.999986,362.496002,-931.440002)" style="stroke:#000000;stroke-width:0.05mm;fill:none" r="3" cx="0" cy="0"/>
    <circle transform="matrix(0.999986,-0.005311,-0.005311,-0.999986,225.503998,-931.440002)" style="stroke:#000000;stroke-width:0.05mm;fill:none" r="3" cx="0" cy="0"/>
    <circle transform="matrix(0.999986,0.005311,-0.005311,0.999986,251.332001,-660.471985)" style="stroke:#000000;stroke-width:0.05mm;fill:none" r="3" cx="0" cy="0"/>
    <circle transform="matrix(0.999986,0.005311,-0.005311,0.999986,336.216003,-660.471985)" style="stroke:#000000;stroke-width:0.05mm;fill:none" r="3" cx="0" cy="0"/>
    <path transform="matrix(1,0,0,-1,294,-809)" style="stroke:#000000;stroke-width:0.05mm;fill:none" d="M60,-130C60,-135.522827,55.522842,-140,50,-140"/>
    <path transform="matrix(1,0,0,-1,294,-809)" style="stroke:#000000;stroke-width:0.05mm;fill:none" d="M50,-140L-50,-140"/>
    <path transform="matrix(1,0,0,-1,294,-809)" style="stroke:#000000;stroke-width:0.05mm;fill:none" d="M-50,-140C-55.52285,-140,-60,-135.522827,-60,-130"/>
    <path transform="matrix(1,0,0,-1,294,-809)" style="stroke:#000000;stroke-width:0.05mm;fill:none" d="M-60,130C-60,135.522827,-55.522846,140,-50,140"/>
    <path transform="matrix(1,0,0,-1,294,-809)" style="stroke:#000000;stroke-width:0.05mm;fill:none" d="M-50,140L50,140"/>
    <path transform="matrix(1,0,0,-1,294,-809)" style="stroke:#000000;stroke-width:0.05mm;fill:none" d="M50,140C55.522842,140,60,135.522827,60,130"/>
    <path transform="matrix(1,0,0,-1,294,-809)" style="stroke:#000000;stroke-width:0.05mm;fill:none" d="M60,130L60,-130"/>
    <path transform="matrix(1,0,0,-1,134,-809)" style="stroke:#000000;stroke-width:0.05mm;fill:none" d="M60,-130C60,-135.522827,55.522842,-140,50,-140"/>
    <path transform="matrix(1,0,0,-1,134,-809)" style="stroke:#000000;stroke-width:0.05mm;fill:none" d="M50,-140L-50,-140"/>
    <path transform="matrix(1,0,0,-1,134,-809)" style="stroke:#000000;stroke-width:0.05mm;fill:none" d="M-50,-140C-55.52285,-140,-60,-135.522827,-60,-130"/>
    <path transform="matrix(1,0,0,-1,134,-809)" style="stroke:#000000;stroke-width:0.05mm;fill:none" d="M-60,-130L-60,130"/>
    <path transform="matrix(1,0,0,-1,134,-809)" style="stroke:#000000;stroke-width:0.05mm;fill:none" d="M-60,130C-60,135.522827,-55.522846,140,-50,140"/>
    <path transform="matrix(1,0,0,-1,134,-809)" style="stroke:#000000;stroke-width:0.05mm;fill:none" d="M-50,140L50,140"/>
    <path transform="matrix(1,0,0,-1,134,-809)" style="stroke:#000000;stroke-width:0.05mm;fill:none" d="M50,140C55.522842,140,60,135.522827,60,130"/>
    <path transform="matrix(1,0,0,-0.261779,134,-713.031006)" style="stroke:#000000;stroke-width:0.05mm;fill:none" d="M60,130L60,-130"/>
    <path transform="matrix(1,0,0,-0.1464,134,-919.969971)" style="stroke:#000000;stroke-width:0.05mm;fill:none" d="M60,130L60,-130"/>
    <path transform="matrix(1,0,0,-0.261776,294,-713.031006)" style="stroke:#000000;stroke-width:0.05mm;fill:none" d="M-60,-130L-60,130"/>
    <path transform="matrix(1,0,0,-0.146409,294,-919.969971)" style="stroke:#000000;stroke-width:0.05mm;fill:none" d="M-60,-130L-60,130"/>
    <path transform="matrix(1,0,0,-1,294,-489)" style="stroke:#000000;stroke-width:0.05mm;fill:none" d="M60,-130C60,-135.522827,55.522842,-140,50,-140"/>
    <path transform="matrix(1,0,0,-1,294,-489)" style="stroke:#000000;stroke-width:0.05mm;fill:none" d="M50,-140L-50,-140"/>
    <path transform="matrix(1,0,0,-1,294,-489)" style="stroke:#000000;stroke-width:0.05mm;fill:none" d="M-50,-140C-55.52285,-140,-60,-135.522827,-60,-130"/>
    <path transform="matrix(1,0,0,-0.107693,294,-605)" style="stroke:#000000;stroke-width:0.05mm;fill:none" d="M-60,-130L-60,130"/>
    <path transform="matrix(1,0,0,-1,294,-489)" style="stroke:#000000;stroke-width:0.05mm;fill:none" d="M-60,130C-60,135.522827,-55.522846,140,-50,140"/>
    <path transform="matrix(1,0,0,-1,294,-489)" style="stroke:#000000;stroke-width:0.05mm;fill:none" d="M-50,140L50,140"/>
    <path transform="matrix(1,0,0,-1,294,-489)" style="stroke:#000000;stroke-width:0.05mm;fill:none" d="M50,140C55.522842,140,60,135.522827,60,130"/>
    <path transform="matrix(1,0,0,-1,294,-489)" style="stroke:#000000;stroke-width:0.05mm;fill:none" d="M60,130L60,-130"/>
    <circle transform="matrix(1,0,0,-1,179.845001,-580.754028)" style="stroke:#000000;stroke-width:0.05mm;fill:none" r="2" cx="0" cy="0"/>
    <circle transform="matrix(1,0,0,-1,248.405975,-580.754028)" style="stroke:#000000;stroke-width:0.05mm;fill:none" r="2" cx="0" cy="0"/>
    <circle transform="matrix(1,0,0,-1,179.593964,-397.244995)" style="stroke:#000000;stroke-width:0.05mm;fill:none" r="2" cx="0" cy="0"/>
    <circle transform="matrix(1,0,0,-1,248.22702,-397.244995)" style="stroke:#000000;stroke-width:0.05mm;fill:none" r="2" cx="0" cy="0"/>
    <path transform="matrix(1,0,0,-1,134,-489)" style="stroke:#000000;stroke-width:0.05mm;fill:none" d="M60,-130C60,-135.522827,55.522842,-140,50,-140"/>
    <path transform="matrix(1,0,0,-1,134,-489)" style="stroke:#000000;stroke-width:0.05mm;fill:none" d="M50,-140L-50,-140"/>
    <path transform="matrix(1,0,0,-1,134,-489)" style="stroke:#000000;stroke-width:0.05mm;fill:none" d="M-50,-140C-55.52285,-140,-60,-135.522827,-60,-130"/>
    <path transform="matrix(1,0,0,-1,134,-489)" style="stroke:#000000;stroke-width:0.05mm;fill:none" d="M-60,-130L-60,130"/>
    <path transform="matrix(1,0,0,-1,134,-489)" style="stroke:#000000;stroke-width:0.05mm;fill:none" d="M-60,130C-60,135.522827,-55.522846,140,-50,140"/>
    <path transform="matrix(1,0,0,-1,134,-489)" style="stroke:#000000;stroke-width:0.05mm;fill:none" d="M-50,140L50,140"/>
    <path transform="matrix(1,0,0,-1,134,-489)" style="stroke:#000000;stroke-width:0.05mm;fill:none" d="M50,140C55.522842,140,60,135.522827,60,130"/>
    <path transform="matrix(1,0,0,-0.107693,134,-605)" style="stroke:#000000;stroke-width:0.05mm;fill:none" d="M60,130L60,-130"/>
    <path transform="matrix(1,0,0,-1,214,-489)" style="stroke:#000000;stroke-width:0.05mm;fill:none" d="M46.5,-92C46.5,-97.522842,42.022827,-102,36.5,-102"/>
    <path transform="matrix(0.22606,0,0,-1,185.751007,-489)" style="stroke:#000000;stroke-width:0.05mm;fill:none" d="M36.5,-102L-36.5,-102"/>
    <path transform="matrix(1,0,0,-1,214,-489)" style="stroke:#000000;stroke-width:0.05mm;fill:none" d="M-36.5,-102C-42.022827,-102,-46.5,-97.522842,-46.5,-92"/>
    <path transform="matrix(1,0,0,-1,214,-489)" style="stroke:#000000;stroke-width:0.05mm;fill:none" d="M-46.5,-92L-46.5,92"/>
    <path transform="matrix(1,0,0,-1,214,-489)" style="stroke:#000000;stroke-width:0.05mm;fill:none" d="M-46.5,92C-46.5,97.522858,-42.022827,102,-36.5,102"/>
    <path transform="matrix(0.22603,0,0,-1,185.75,-489)" style="stroke:#000000;stroke-width:0.05mm;fill:none" d="M-36.5,102L36.5,102"/>
    <path transform="matrix(1,0,0,-1,214,-489)" style="stroke:#000000;stroke-width:0.05mm;fill:none" d="M36.5,102C42.022827,102,46.5,97.522858,46.5,92"/>
    <path transform="matrix(1,0,0,-1,214,-489)" style="stroke:#000000;stroke-width:0.05mm;fill:none" d="M46.5,92L46.5,-92"/>
    <path transform="matrix(0.226085,0,0,-1,242.251999,-489)" style="stroke:#000000;stroke-width:0.05mm;fill:none" d="M-36.5,102L36.5,102"/>
    <path transform="matrix(0.226048,0,0,-1,242.251007,-285)" style="stroke:#000000;stroke-width:0.05mm;fill:none" d="M-36.5,102L36.5,102"/>
    <path transform="matrix(1,0,0,-0.107863,294,-372.977997)" style="stroke:#000000;stroke-width:0.05mm;fill:none" d="M-60,-130L-60,130"/>
    <path transform="matrix(1,0,0,-0.107776,254.001999,-372.989014)" style="stroke:#000000;stroke-width:0.05mm;fill:none" d="M-60,-130L-60,130"/>
</svg>
