<?xml version="1.0" encoding="UTF-8"?>
<svg xmlns="http://www.w3.org/2000/svg" xmlns:xlink="http://www.w3.org/1999/xlink" width="320.000mm" height="640.000mm" viewBox="793.000000 -988.000000 320.000000 640.000000">
    <circle transform="matrix(1,0,0,-1,912.346008,-775.185059)" style="stroke:#000000;stroke-width:0.05mm;fill:none" r="2" cx="0" cy="0"/>
    <circle transform="matrix(1,0,0,-1,993.655029,-775.390991)" style="stroke:#000000;stroke-width:0.05mm;fill:none" r="2" cx="0" cy="0"/>
    <circle transform="matrix(1,0,0,-1,983.16803,-910.81604)" style="stroke:#000000;stroke-width:0.05mm;fill:none" r="2" cx="0" cy="0"/>
    <circle transform="matrix(1,0,0,-1,922.878052,-910.601013)" style="stroke:#000000;stroke-width:0.05mm;fill:none" r="2" cx="0" cy="0"/>
    <path transform="matrix(1,0,0,-1,953,-843)" style="stroke:#000000;stroke-width:0.05mm;fill:none" d="M51.206146,-66.937805C51.206146,-72.460663,46.728973,-76.937805,41.206146,-76.937805"/>
    <path transform="matrix(0.257318,0,0,-1,922.396973,-843)" style="stroke:#000000;stroke-width:0.05mm;fill:none" d="M41.206146,-76.937805L-41.206146,-76.937805"/>
    <path transform="matrix(1,0,0,-1,953,-843)" style="stroke:#000000;stroke-width:0.05mm;fill:none" d="M-41.206146,-76.937805C-46.729004,-76.937805,-51.206146,-72.460663,-51.206146,-66.937805"/>
    <path transform="matrix(1,0,0,-1,953,-843)" style="stroke:#000000;stroke-width:0.05mm;fill:none" d="M-51.206146,-66.937805L-51.206146,66.937805"/>
    <path transform="matrix(1,0,0,-1,953,-843)" style="stroke:#000000;stroke-width:0.05mm;fill:none" d="M-51.206146,66.937805C-51.206146,72.460663,-46.729004,76.937805,-41.206146,76.937805"/>
    <path transform="matrix(0.257317,0,0,-1,922.396973,-843)" style="stroke:#000000;stroke-width:0.05mm;fill:none" d="M-41.206146,76.937805L41.206146,76.937805"/>
    <path transform="matrix(1,0,0,-1,953,-843)" style="stroke:#000000;stroke-width:0.05mm;fill:none" d="M41.206146,76.937805C46.728973,76.937805,51.206146,72.460663,51.206146,66.937805"/>
    <path transform="matrix(1,0,0,-1,953,-843)" style="stroke:#000000;stroke-width:0.05mm;fill:none" d="M51.206146,66.937805L51.206146,-66.937805"/>
    <path transform="matrix(0.257321,0,0,-1,983.603027,-843)" style="stroke:#000000;stroke-width:0.05mm;fill:none" d="M41.206146,-76.937805L-41.206146,-76.937805"/>
    <path transform="matrix(0.257325,0,0,-1,983.603027,-843)" style="stroke:#000000;stroke-width:0.05mm;fill:none" d="M-41.206146,76.937805L41.206146,76.937805"/>
    <path transform="matrix(1,0,0,-1,804.698975,-578.007996)" style="stroke:#000000;stroke-width:0.05mm;fill:none" d="M4.177155,-4.5C4.177155,-6.15686,2.834015,-7.5,1.177155,-7.5L-1.177155,-7.5C-2.834015,-7.5,-4.177155,-6.15686,-4.177155,-4.5L-4.177155,4.5C-4.177155,6.15686,-2.834015,7.5,-1.177155,7.5L1.177155,7.5C2.834015,7.5,4.177155,6.15686,4.177155,4.5L4.177155,-4.5z"/>
    <path transform="matrix(1,0,0,-1,941.552002,-437.947998)" style="stroke:#000000;stroke-width:0.05mm;fill:none" d="M4.177155,-4.5C4.177155,-6.15686,2.834015,-7.5,1.177155,-7.5L-1.177155,-7.5C-2.834015,-7.5,-4.177155,-6.15686,-4.177155,-4.5L-4.177155,4.5C-4.177155,6.15686,-2.834015,7.5,-1.177155,7.5L1.177155,7.5C2.834015,7.5,4.177155,6.15686,4.177155,4.5L4.177155,-4.5z"/>
    <path transform="matrix(1,0,0,-1,804.698975,-898.01001)" style="stroke:#000000;stroke-width:0.05mm;fill:none" d="M4.177155,-4.5C4.177155,-6.15686,2.834015,-7.5,1.177155,-7.5L-1.177155,-7.5C-2.834015,-7.5,-4.177155,-6.15686,-4.177155,-4.5L-4.177155,4.5C-4.177155,6.15686,-2.834015,7.5,-1.177155,7.5L1.177155,7.5C2.834015,7.5,4.177155,6.15686,4.177155,4.5L4.177155,-4.5z"/>
    <path transform="matrix(1,0,0,-1,941.552002,-757.947998)" style="stroke:#000000;stroke-width:0.05mm;fill:none" d="M4.177155,-4.5C4.177155,-6.15686,2.834015,-7.5,1.177155,-7.5L-1.177155,-7.5C-2.834015,-7.5,-4.177155,-6.15686,-4.177155,-4.5L-4.177155,4.5C-4.177155,6.15686,-2.834015,7.5,-1.177155,7.5L1.177155,7.5C2.834015,7.5,4.177155,6.15686,4.177155,4.5L4.177155,-4.5z"/>
    <path transform="matrix(1,0,0,-1,964.698975,-578.007996)" style="stroke:#000000;stroke-width:0.05mm;fill:none" d="M4.177155,-4.5C4.177155,-6.15686,2.834015,-7.5,1.177155,-7.5L-1.177155,-7.5C-2.834015,-7.5,-4.177155,-6.15686,-4.177155,-4.5L-4.177155,4.5C-4.177155,6.15686,-2.834015,7.5,-1.177155,7.5L1.177155,7.5C2.834015,7.5,4.177155,6.15686,4.177155,4.5L4.177155,-4.5z"/>
    <path transform="matrix(1,0,0,-1,1101.552002,-437.947998)" style="stroke:#000000;stroke-width:0.05mm;fill:none" d="M4.177155,-4.5C4.177155,-6.15686,2.834015,-7.5,1.177155,-7.5L-1.177155,-7.5C-2.834015,-7.5,-4.177155,-6.15686,-4.177155,-4.5L-4.177155,4.5C-4.177155,6.15686,-2.834015,7.5,-1.177155,7.5L1.177155,7.5C2.834015,7.5,4.177155,6.15686,4.177155,4.5L4.177155,-4.5z"/>
    <path transform="matrix(1,0,0,-1,964.698975,-898.01001)" style="stroke:#000000;stroke-width:0.05mm;fill:none" d="M4.177155,-4.5C4.177155,-6.15686,2.834015,-7.5,1.177155,-7.5L-1.177155,-7.5C-2.834015,-7.5,-4.177155,-6.15686,-4.177155,-4.5L-4.177155,4.5C-4.177155,6.15686,-2.834015,7.5,-1.177155,7.5L1.177155,7.5C2.834015,7.5,4.177155,6.15686,4.177155,4.5L4.177155,-4.5z"/>
    <path transform="matrix(1,0,0,-1,1101.552002,-757.947998)" style="stroke:#000000;stroke-width:0.05mm;fill:none" d="M4.177155,-4.5C4.177155,-6.15686,2.834015,-7.5,1.177155,-7.5L-1.177155,-7.5C-2.834015,-7.5,-4.177155,-6.15686,-4.177155,-4.5L-4.177155,4.5C-4.177155,6.15686,-2.834015,7.5,-1.177155,7.5L1.177155,7.5C2.834015,7.5,4.177155,6.15686,4.177155,4.5L4.177155,-4.5z"/>
    <circle transform="matrix(0.999986,-0.005311,-0.005311,-0.999986,804.504028,-539.69397)" style="stroke:#000000;stroke-width:0.05mm;fill:none" r="3" cx="0" cy="0"/>
    <circle transform="matrix(0.999986,-0.005311,-0.005311,-0.999986,941.495972,-539.69397)" style="stroke:#000000;stroke-width:0.05mm;fill:none" r="3" cx="0" cy="0"/>
    <circle transform="matrix(0.999986,-0.005311,-0.005311,-0.999986,804.504028,-476.683014)" style="stroke:#000000;stroke-width:0.05mm;fill:none" r="3" cx="0" cy="0"/>
    <circle transform="matrix(0.999986,-0.005311,-0.005311,-0.999986,941.495972,-476.683014)" style="stroke:#000000;stroke-width:0.05mm;fill:none" r="3" cx="0" cy="0"/>
    <circle transform="matrix(0.999986,-0.005311,-0.005311,-0.999986,804.504028,-385.605988)" style="stroke:#000000;stroke-width:0.05mm;fill:none" r="3" cx="0" cy="0"/>
    <circle transform="matrix(0.999986,-0.005311,-0.005311,-0.999986,941.495972,-385.605988)" style="stroke:#000000;stroke-width:0.05mm;fill:none" r="3" cx="0" cy="0"/>
    <circle transform="matrix(0.999986,-0.005311,-0.005311,-0.999986,830.317993,-656.528992)" style="stroke:#000000;stroke-width:0.05mm;fill:none" r="3" cx="0" cy="0"/>
    <circle transform="matrix(0.999986,-0.005311,-0.005311,-0.999986,915.202026,-656.528992)" style="stroke:#000000;stroke-width:0.05mm;fill:none" r="3" cx="0" cy="0"/>
    <circle transform="matrix(0.999986,-0.005311,-0.005311,-0.999986,941.495972,-630.437988)" style="stroke:#000000;stroke-width:0.05mm;fill:none" r="3" cx="0" cy="0"/>
    <circle transform="matrix(0.999986,-0.005311,-0.005311,-0.999986,804.504028,-630.437988)" style="stroke:#000000;stroke-width:0.05mm;fill:none" r="3" cx="0" cy="0"/>
    <circle transform="matrix(0.999986,0.005311,-0.005311,0.999986,830.332031,-359.471985)" style="stroke:#000000;stroke-width:0.05mm;fill:none" r="3" cx="0" cy="0"/>
    <circle transform="matrix(0.999986,0.005311,-0.005311,0.999986,915.216003,-359.471985)" style="stroke:#000000;stroke-width:0.05mm;fill:none" r="3" cx="0" cy="0"/>
    <circle transform="matrix(0.999986,-0.005311,-0.005311,-0.999986,804.504028,-859.690002)" style="stroke:#000000;stroke-width:0.05mm;fill:none" r="3" cx="0" cy="0"/>
    <circle transform="matrix(0.999986,-0.005311,-0.005311,-0.999986,941.495972,-859.690002)" style="stroke:#000000;stroke-width:0.05mm;fill:none" r="3" cx="0" cy="0"/>
    <circle transform="matrix(0.999986,-0.005311,-0.005311,-0.999986,804.504028,-796.682983)" style="stroke:#000000;stroke-width:0.05mm;fill:none" r="3" cx="0" cy="0"/>
    <circle transform="matrix(0.999986,-0.005311,-0.005311,-0.999986,941.495972,-796.682983)" style="stroke:#000000;stroke-width:0.05mm;fill:none" r="3" cx="0" cy="0"/>
    <circle transform="matrix(0.999986,-0.005311,-0.005311,-0.999986,804.504028,-705.606018)" style="stroke:#000000;stroke-width:0.05mm;fill:none" r="3" cx="0" cy="0"/>
    <circle transform="matrix(0.999986,-0.005311,-0.005311,-0.999986,941.495972,-705.606018)" style="stroke:#000000;stroke-width:0.05mm;fill:none" r="3" cx="0" cy="0"/>
    <circle transform="matrix(0.999986,-0.005311,-0.005311,-0.999986,830.317993,-976.530029)" style="stroke:#000000;stroke-width:0.05mm;fill:none" r="3" cx="0" cy="0"/>
    <circle transform="matrix(0.999986,-0.005311,-0.005311,-0.999986,915.202026,-976.530029)" style="stroke:#000000;stroke-width:0.05mm;fill:none" r="3" cx="0" cy="0"/>
    <circle transform="matrix(0.999986,-0.005311,-0.005311,-0.999986,941.495972,-950.440002)" style="stroke:#000000;stroke-width:0.05mm;fill:none" r="3" cx="0" cy="0"/>
    <circle transform="matrix(0.999986,-0.005311,-0.005311,-0.999986,804.504028,-950.440002)" style="stroke:#000000;stroke-width:0.05mm;fill:none" r="3" cx="0" cy="0"/>
    <circle transform="matrix(0.999986,0.005311,-0.005311,0.999986,830.332031,-679.471985)" style="stroke:#000000;stroke-width:0.05mm;fill:none" r="3" cx="0" cy="0"/>
    <circle transform="matrix(0.999986,0.005311,-0.005311,0.999986,915.216003,-679.471985)" style="stroke:#000000;stroke-width:0.05mm;fill:none" r="3" cx="0" cy="0"/>
    <circle transform="matrix(0.999986,-0.005311,-0.005311,-0.999986,964.504028,-539.69397)" style="stroke:#000000;stroke-width:0.05mm;fill:none" r="3" cx="0" cy="0"/>
    <circle transform="matrix(0.999986,-0.005311,-0.005311,-0.999986,1101.495972,-539.69397)" style="stroke:#000000;stroke-width:0.05mm;fill:none" r="3" cx="0" cy="0"/>
    <circle transform="matrix(0.999986,-0.005311,-0.005311,-0.999986,964.504028,-476.683014)" style="stroke:#000000;stroke-width:0.05mm;fill:none" r="3" cx="0" cy="0"/>
    <circle transform="matrix(0.999986,-0.005311,-0.005311,-0.999986,1101.495972,-476.683014)" style="stroke:#000000;stroke-width:0.05mm;fill:none" r="3" cx="0" cy="0"/>
    <circle transform="matrix(0.999986,-0.005311,-0.005311,-0.999986,964.504028,-385.605988)" style="stroke:#000000;stroke-width:0.05mm;fill:none" r="3" cx="0" cy="0"/>
    <circle transform="matrix(0.999986,-0.005311,-0.005311,-0.999986,1101.495972,-385.605988)" style="stroke:#000000;stroke-width:0.05mm;fill:none" r="3" cx="0" cy="0"/>
    <circle transform="matrix(0.999986,-0.005311,-0.005311,-0.999986,990.317993,-656.528015)" style="stroke:#000000;stroke-width:0.05mm;fill:none" r="3" cx="0" cy="0"/>
    <circle transform="matrix(0.999986,-0.005311,-0.005311,-0.999986,1075.202026,-656.528992)" style="stroke:#000000;stroke-width:0.05mm;fill:none" r="3" cx="0" cy="0"/>
    <circle transform="matrix(0.999986,-0.005311,-0.005311,-0.999986,1101.495972,-630.437988)" style="stroke:#000000;stroke-width:0.05mm;fill:none" r="3" cx="0" cy="0"/>
    <circle transform="matrix(0.999986,-0.005311,-0.005311,-0.999986,964.504028,-630.437988)" style="stroke:#000000;stroke-width:0.05mm;fill:none" r="3" cx="0" cy="0"/>
    <circle transform="matrix(0.999986,0.005311,-0.005311,0.999986,990.332031,-359.471008)" style="stroke:#000000;stroke-width:0.05mm;fill:none" r="3" cx="0" cy="0"/>
    <circle transform="matrix(0.999986,0.005311,-0.005311,0.999986,1075.216064,-359.471008)" style="stroke:#000000;stroke-width:0.05mm;fill:none" r="3" cx="0" cy="0"/>
    <circle transform="matrix(0.999986,-0.005311,-0.005311,-0.999986,964.504028,-859.690002)" style="stroke:#000000;stroke-width:0.05mm;fill:none" r="3" cx="0" cy="0"/>
    <circle transform="matrix(0.999986,-0.005311,-0.005311,-0.999986,1101.495972,-859.690002)" style="stroke:#000000;stroke-width:0.05mm;fill:none" r="3" cx="0" cy="0"/>
    <circle transform="matrix(0.999986,-0.005311,-0.005311,-0.999986,964.504028,-796.682983)" style="stroke:#000000;stroke-width:0.05mm;fill:none" r="3" cx="0" cy="0"/>
    <circle transform="matrix(0.999986,-0.005311,-0.005311,-0.999986,1101.495972,-796.682983)" style="stroke:#000000;stroke-width:0.05mm;fill:none" r="3" cx="0" cy="0"/>
    <circle transform="matrix(0.999986,-0.005311,-0.005311,-0.999986,964.504028,-705.606018)" style="stroke:#000000;stroke-width:0.05mm;fill:none" r="3" cx="0" cy="0"/>
    <circle transform="matrix(0.999986,-0.005311,-0.005311,-0.999986,1101.495972,-705.606018)" style="stroke:#000000;stroke-width:0.05mm;fill:none" r="3" cx="0" cy="0"/>
    <circle transform="matrix(0.999986,-0.005311,-0.005311,-0.999986,990.317993,-976.530029)" style="stroke:#000000;stroke-width:0.05mm;fill:none" r="3" cx="0" cy="0"/>
    <circle transform="matrix(0.999986,-0.005311,-0.005311,-0.999986,1075.202026,-976.530029)" style="stroke:#000000;stroke-width:0.05mm;fill:none" r="3" cx="0" cy="0"/>
    <circle transform="matrix(0.999986,-0.005311,-0.005311,-0.999986,1101.495972,-950.440002)" style="stroke:#000000;stroke-width:0.05mm;fill:none" r="3" cx="0" cy="0"/>
    <circle transform="matrix(0.999986,-0.005311,-0.005311,-0.999986,964.504028,-950.440002)" style="stroke:#000000;stroke-width:0.05mm;fill:none" r="3" cx="0" cy="0"/>
    <circle transform="matrix(0.999986,0.005311,-0.005311,0.999986,990.332031,-679.471985)" style="stroke:#000000;stroke-width:0.05mm;fill:none" r="3" cx="0" cy="0"/>
    <circle transform="matrix(0.999986,0.005311,-0.005311,0.999986,1075.216064,-679.471985)" style="stroke:#000000;stroke-width:0.05mm;fill:none" r="3" cx="0" cy="0"/>
    <path transform="matrix(1,0,0,-1,953,-668)" style="stroke:#000000;stroke-width:0.05mm;fill:none" d="M160.000015,-314.999969C160.000015,-317.761383,157.761444,-319.999969,155.000015,-319.999969L-155,-319.999969C-157.761414,-319.999969,-160,-317.761383,-160,-314.999969L-160,315C-160,317.761414,-157.761414,320,-155,320L155.000015,320C157.761444,320,160.000015,317.761414,160.000015,315L160.000015,-314.999969z"/>
    <path transform="matrix(1,0,0,-1,1033,-828)" style="stroke:#000000;stroke-width:0.05mm;fill:none" d="M60,-130C60,-135.522827,55.522842,-140,50,-140"/>
    <path transform="matrix(1,0,0,-1,1033,-828)" style="stroke:#000000;stroke-width:0.05mm;fill:none" d="M50,-140L-50,-140"/>
    <path transform="matrix(1,0,0,-1,1033,-828)" style="stroke:#000000;stroke-width:0.05mm;fill:none" d="M-50,-140C-55.52285,-140,-60,-135.522827,-60,-130"/>
    <path transform="matrix(1,0,0,-1,1033,-828)" style="stroke:#000000;stroke-width:0.05mm;fill:none" d="M-60,130C-60,135.522827,-55.522846,140,-50,140"/>
    <path transform="matrix(1,0,0,-1,1033,-828)" style="stroke:#000000;stroke-width:0.05mm;fill:none" d="M-50,140L50,140"/>
    <path transform="matrix(1,0,0,-1,1033,-828)" style="stroke:#000000;stroke-width:0.05mm;fill:none" d="M50,140C55.522842,140,60,135.522827,60,130"/>
    <path transform="matrix(1,0,0,-1,1033,-828)" style="stroke:#000000;stroke-width:0.05mm;fill:none" d="M60,130L60,-130"/>
    <path transform="matrix(1,0,0,-1,873,-828)" style="stroke:#000000;stroke-width:0.05mm;fill:none" d="M60,-130C60,-135.522827,55.522842,-140,50,-140"/>
    <path transform="matrix(1,0,0,-1,873,-828)" style="stroke:#000000;stroke-width:0.05mm;fill:none" d="M50,-140L-50,-140"/>
    <path transform="matrix(1,0,0,-1,873,-828)" style="stroke:#000000;stroke-width:0.05mm;fill:none" d="M-50,-140C-55.52285,-140,-60,-135.522827,-60,-130"/>
    <path transform="matrix(1,0,0,-1,873,-828)" style="stroke:#000000;stroke-width:0.05mm;fill:none" d="M-60,-130L-60,130"/>
    <path transform="matrix(1,0,0,-1,873,-828)" style="stroke:#000000;stroke-width:0.05mm;fill:none" d="M-60,130C-60,135.522827,-55.522846,140,-50,140"/>
    <path transform="matrix(1,0,0,-1,873,-828)" style="stroke:#000000;stroke-width:0.05mm;fill:none" d="M-50,140L50,140"/>
    <path transform="matrix(1,0,0,-1,873,-828)" style="stroke:#000000;stroke-width:0.05mm;fill:none" d="M50,140C55.522842,140,60,135.522827,60,130"/>
    <path transform="matrix(1,0,0,-0.261779,873,-732.031006)" style="stroke:#000000;stroke-width:0.05mm;fill:none" d="M60,130L60,-130"/>
    <path transform="matrix(1,0,0,-0.1464,873,-938.969971)" style="stroke:#000000;stroke-width:0.05mm;fill:none" d="M60,130L60,-130"/>
    <path transform="matrix(1,0,0,-0.261776,1033,-732.031006)" style="stroke:#000000;stroke-width:0.05mm;fill:none" d="M-60,-130L-60,130"/>
    <path transform="matrix(1,0,0,-0.146409,1033,-938.969971)" style="stroke:#000000;stroke-width:0.05mm;fill:none" d="M-60,-130L-60,130"/>
    <path transform="matrix(1,0,0,-1,1033,-508)" style="stroke:#000000;stroke-width:0.05mm;fill:none" d="M60,-130C60,-135.522827,55.522842,-140,50,-140"/>
    <path transform="matrix(1,0,0,-1,1033,-508)" style="stroke:#000000;stroke-width:0.05mm;fill:none" d="M50,-140L-50,-140"/>
    <path transform="matrix(1,0,0,-1,1033,-508)" style="stroke:#000000;stroke-width:0.05mm;fill:none" d="M-50,-140C-55.52285,-140,-60,-135.522827,-60,-130"/>
    <path transform="matrix(1,0,0,-0.107693,1033,-624)" style="stroke:#000000;stroke-width:0.05mm;fill:none" d="M-60,-130L-60,130"/>
    <path transform="matrix(1,0,0,-1,1033,-508)" style="stroke:#000000;stroke-width:0.05mm;fill:none" d="M-60,130C-60,135.522827,-55.522846,140,-50,140"/>
    <path transform="matrix(1,0,0,-1,1033,-508)" style="stroke:#000000;stroke-width:0.05mm;fill:none" d="M-50,140L50,140"/>
    <path transform="matrix(1,0,0,-1,1033,-508)" style="stroke:#000000;stroke-width:0.05mm;fill:none" d="M50,140C55.522842,140,60,135.522827,60,130"/>
    <path transform="matrix(1,0,0,-1,1033,-508)" style="stroke:#000000;stroke-width:0.05mm;fill:none" d="M60,130L60,-130"/>
    <circle transform="matrix(1,0,0,-1,918.844971,-599.754028)" style="stroke:#000000;stroke-width:0.05mm;fill:none" r="2" cx="0" cy="0"/>
    <circle transform="matrix(1,0,0,-1,987.406006,-599.754028)" style="stroke:#000000;stroke-width:0.05mm;fill:none" r="2" cx="0" cy="0"/>
    <circle transform="matrix(1,0,0,-1,918.593994,-416.244995)" style="stroke:#000000;stroke-width:0.05mm;fill:none" r="2" cx="0" cy="0"/>
    <circle transform="matrix(1,0,0,-1,987.227051,-416.244995)" style="stroke:#000000;stroke-width:0.05mm;fill:none" r="2" cx="0" cy="0"/>
    <path transform="matrix(1,0,0,-1,873,-508)" style="stroke:#000000;stroke-width:0.05mm;fill:none" d="M60,-130C60,-135.522827,55.522842,-140,50,-140"/>
    <path transform="matrix(1,0,0,-1,873,-508)" style="stroke:#000000;stroke-width:0.05mm;fill:none" d="M50,-140L-50,-140"/>
    <path transform="matrix(1,0,0,-1,873,-508)" style="stroke:#000000;stroke-width:0.05mm;fill:none" d="M-50,-140C-55.52285,-140,-60,-135.522827,-60,-130"/>
    <path transform="matrix(1,0,0,-1,873,-508)" style="stroke:#000000;stroke-width:0.05mm;fill:none" d="M-60,-130L-60,130"/>
    <path transform="matrix(1,0,0,-1,873,-508)" style="stroke:#000000;stroke-width:0.05mm;fill:none" d="M-60,130C-60,135.522827,-55.522846,140,-50,140"/>
    <path transform="matrix(1,0,0,-1,873,-508)" style="stroke:#000000;stroke-width:0.05mm;fill:none" d="M-50,140L50,140"/>
    <path transform="matrix(1,0,0,-1,873,-508)" style="stroke:#000000;stroke-width:0.05mm;fill:none" d="M50,140C55.522842,140,60,135.522827,60,130"/>
    <path transform="matrix(1,0,0,-0.107693,873,-624)" style="stroke:#000000;stroke-width:0.05mm;fill:none" d="M60,130L60,-130"/>
    <path transform="matrix(1,0,0,-1,953,-508)" style="stroke:#000000;stroke-width:0.05mm;fill:none" d="M46.5,-92C46.5,-97.522842,42.022827,-102,36.5,-102"/>
    <path transform="matrix(0.22606,0,0,-1,924.750977,-508)" style="stroke:#000000;stroke-width:0.05mm;fill:none" d="M36.5,-102L-36.5,-102"/>
    <path transform="matrix(1,0,0,-1,953,-508)" style="stroke:#000000;stroke-width:0.05mm;fill:none" d="M-36.5,-102C-42.022827,-102,-46.5,-97.522842,-46.5,-92"/>
    <path transform="matrix(1,0,0,-1,953,-508)" style="stroke:#000000;stroke-width:0.05mm;fill:none" d="M-46.5,-92L-46.5,92"/>
    <path transform="matrix(1,0,0,-1,953,-508)" style="stroke:#000000;stroke-width:0.05mm;fill:none" d="M-46.5,92C-46.5,97.522858,-42.022827,102,-36.5,102"/>
    <path transform="matrix(0.22603,0,0,-1,924.75,-508)" style="stroke:#000000;stroke-width:0.05mm;fill:none" d="M-36.5,102L36.5,102"/>
    <path transform="matrix(1,0,0,-1,953,-508)" style="stroke:#000000;stroke-width:0.05mm;fill:none" d="M36.5,102C42.022827,102,46.5,97.522858,46.5,92"/>
    <path transform="matrix(1,0,0,-1,953,-508)" style="stroke:#000000;stroke-width:0.05mm;fill:none" d="M46.5,92L46.5,-92"/>
    <path transform="matrix(0.226085,0,0,-1,981.252014,-508)" style="stroke:#000000;stroke-width:0.05mm;fill:none" d="M-36.5,102L36.5,102"/>
    <path transform="matrix(0.226048,0,0,-1,981.250977,-304)" style="stroke:#000000;stroke-width:0.05mm;fill:none" d="M-36.5,102L36.5,102"/>
    <path transform="matrix(1,0,0,-0.107863,1033,-391.977997)" style="stroke:#000000;stroke-width:0.05mm;fill:none" d="M-60,-130L-60,130"/>
    <path transform="matrix(1,0,0,-0.107776,993.002014,-391.989014)" style="stroke:#000000;stroke-width:0.05mm;fill:none" d="M-60,-130L-60,130"/>
</svg>
