<?xml version="1.0" encoding="UTF-8"?>
<svg xmlns="http://www.w3.org/2000/svg" xmlns:xlink="http://www.w3.org/1999/xlink" width="93.000mm" height="204.000mm" viewBox="610.500000 -506.000000 93.000000 204.000000">
    <path transform="matrix(1,0,0,-1,657,-404)" style="stroke:#000000;stroke-width:0.05mm;fill:none" d="M46.5,-92C46.5,-97.522842,42.022827,-102,36.5,-102L-36.5,-102C-42.022827,-102,-46.5,-97.522842,-46.5,-92L-46.5,92C-46.5,97.522858,-42.022827,102,-36.5,102L36.5,102C42.022827,102,46.5,97.522858,46.5,92L46.5,-92z"/>
    <circle transform="matrix(1,0,0,-1,622.845032,-495.753998)" style="stroke:#000000;stroke-width:0.05mm;fill:none" r="2" cx="0" cy="0"/>
    <circle transform="matrix(1,0,0,-1,691.406006,-495.753998)" style="stroke:#000000;stroke-width:0.05mm;fill:none" r="2" cx="0" cy="0"/>
    <circle transform="matrix(1,0,0,-1,622.593994,-312.244995)" style="stroke:#000000;stroke-width:0.05mm;fill:none" r="2" cx="0" cy="0"/>
    <circle transform="matrix(1,0,0,-1,691.227051,-312.244995)" style="stroke:#000000;stroke-width:0.05mm;fill:none" r="2" cx="0" cy="0"/>
</svg>
