<?xml version="1.0" encoding="UTF-8"?>
<svg xmlns="http://www.w3.org/2000/svg" xmlns:xlink="http://www.w3.org/1999/xlink" width="102.412mm" height="153.876mm" viewBox="603.793823 -671.937805 102.412354 153.875610">
    <path transform="matrix(1,0,0,-1,655,-595)" style="stroke:#000000;stroke-width:0.05mm;fill:none" d="M51.206146,-66.937805C51.206146,-72.460663,46.728973,-76.937805,41.206146,-76.937805L-41.206146,-76.937805C-46.729004,-76.937805,-51.206146,-72.460663,-51.206146,-66.937805L-51.206146,66.937805C-51.206146,72.460663,-46.729004,76.937805,-41.206146,76.937805L41.206146,76.937805C46.728973,76.937805,51.206146,72.460663,51.206146,66.937805L51.206146,-66.937805z"/>
    <circle transform="matrix(1,0,0,-1,614.346008,-527.185059)" style="stroke:#000000;stroke-width:0.05mm;fill:none" r="2" cx="0" cy="0"/>
    <circle transform="matrix(1,0,0,-1,695.655029,-527.390991)" style="stroke:#000000;stroke-width:0.05mm;fill:none" r="2" cx="0" cy="0"/>
    <circle transform="matrix(1,0,0,-1,685.16803,-662.81604)" style="stroke:#000000;stroke-width:0.05mm;fill:none" r="2" cx="0" cy="0"/>
    <circle transform="matrix(1,0,0,-1,624.877991,-662.601013)" style="stroke:#000000;stroke-width:0.05mm;fill:none" r="2" cx="0" cy="0"/>
</svg>
